<?xml version="1.0" encoding="UTF-8"?><svg id="Capa_2" xmlns="http://www.w3.org/2000/svg" viewBox="0 0 152.73 188.95"><defs><style>.cls-1{fill:#fff;}.cls-2{fill:none;stroke:#fff;stroke-miterlimit:10;stroke-width:4px;}.cls-3{fill:#d5d0c5;fill-rule:evenodd;}</style></defs><g id="Capa_1-2"><g id="Icon_Fruta"><circle class="cls-2" cx="76.36" cy="76.36" r="74.36"/><g><path class="cls-1" d="M53.69,188.77c-.23,0-.42-.05-.6-.16-.17-.1-.26-.27-.26-.49v-17.71c0-.21,.08-.37,.25-.48,.16-.11,.34-.17,.53-.17h9.2c.22,0,.39,.08,.49,.25s.16,.33,.16,.51c0,.23-.06,.42-.17,.58-.11,.17-.27,.25-.48,.25h-8.27v7.15h4.11c.19,0,.34,.08,.46,.23s.17,.34,.17,.55c0,.16-.05,.31-.14,.47-.09,.16-.26,.23-.48,.23h-4.11v8.14c0,.23-.09,.39-.27,.49-.18,.1-.38,.16-.58,.16Z"/><path class="cls-1" d="M63.31,188.77c-.23,0-.42-.07-.59-.21-.16-.14-.25-.29-.25-.47v-11c0-.19,.08-.34,.25-.46,.17-.11,.36-.17,.59-.17s.42,.06,.57,.17c.16,.11,.23,.26,.23,.46v1.27c.19-.35,.45-.68,.78-.99,.33-.31,.72-.57,1.17-.77,.45-.2,.96-.3,1.53-.3h.91c.19,0,.35,.07,.48,.22,.13,.15,.19,.33,.19,.56,0,.21-.06,.39-.19,.55s-.29,.23-.48,.23h-.91c-.57,0-1.12,.15-1.65,.45-.53,.3-.96,.74-1.29,1.3-.33,.56-.49,1.24-.49,2.04v6.42c0,.17-.08,.33-.25,.47-.17,.14-.37,.21-.61,.21Z"/><path class="cls-1" d="M75.92,188.95c-.92,0-1.75-.22-2.5-.68-.75-.45-1.34-1.05-1.79-1.81-.45-.75-.68-1.56-.68-2.41v-6.94c0-.16,.09-.3,.26-.44s.37-.21,.6-.21,.42,.07,.58,.21c.17,.14,.25,.29,.25,.44v6.94c0,.57,.15,1.11,.44,1.61s.68,.91,1.17,1.23c.48,.32,1.03,.48,1.64,.48s1.18-.16,1.66-.47c.49-.31,.87-.72,1.16-1.24,.29-.51,.43-1.05,.43-1.62v-6.97c0-.17,.09-.32,.26-.44,.17-.12,.37-.18,.6-.18,.26,0,.46,.06,.61,.18,.15,.12,.22,.27,.22,.44v6.97c0,.88-.22,1.69-.66,2.43-.44,.74-1.04,1.33-1.79,1.78-.75,.45-1.57,.68-2.46,.68Z"/><path class="cls-1" d="M88.04,188.77c-1.33,0-2.36-.3-3.07-.91-.71-.61-1.07-1.58-1.07-2.91v-13.7c0-.19,.09-.34,.27-.45,.18-.11,.37-.17,.56-.17,.23,0,.42,.06,.6,.17,.17,.11,.26,.26,.26,.45v5.23h3.38c.17,0,.31,.07,.42,.21,.1,.14,.16,.3,.16,.49s-.05,.36-.16,.49c-.1,.14-.24,.21-.42,.21h-3.38v7.07c0,.85,.18,1.44,.54,1.78,.37,.34,1,.51,1.9,.51h.73c.24,0,.43,.07,.56,.22,.13,.15,.2,.33,.2,.53s-.07,.39-.2,.55c-.13,.16-.32,.23-.56,.23h-.73Z"/><path class="cls-1" d="M94.36,188.95c-.97,0-1.8-.28-2.5-.84-.69-.56-1.04-1.43-1.04-2.59,0-.95,.25-1.69,.77-2.2,.51-.51,1.22-.87,2.13-1.07s1.96-.3,3.16-.3h1.33v-.62c0-.55-.1-1.11-.3-1.65s-.52-1-.96-1.35c-.44-.35-1.04-.53-1.81-.53-.57,0-1.04,.06-1.4,.18-.36,.12-.65,.25-.86,.38s-.38,.2-.52,.2c-.21,0-.37-.1-.49-.31s-.18-.41-.18-.6c0-.23,.18-.44,.53-.64s.81-.36,1.35-.49c.55-.13,1.09-.2,1.62-.2,1.16,0,2.08,.24,2.77,.71,.68,.48,1.18,1.1,1.48,1.86,.3,.76,.46,1.58,.46,2.44v6.76c0,.19-.07,.35-.22,.48-.15,.13-.35,.2-.61,.2-.21,0-.39-.07-.54-.2s-.23-.29-.23-.48v-1.14c-.45,.5-1,.96-1.64,1.38-.64,.42-1.4,.62-2.29,.62Zm.42-1.43c.57,0,1.12-.15,1.64-.44,.52-.29,.95-.65,1.29-1.08s.51-.83,.51-1.21v-1.66h-1.09c-.78,0-1.52,.05-2.22,.14-.7,.1-1.27,.3-1.72,.61-.44,.31-.66,.81-.66,1.48,0,.75,.22,1.29,.66,1.64,.44,.35,.97,.52,1.6,.52Z"/></g><g id="pineapple"><path class="cls-3" d="M53.4,61.97c1.18-.37,.15-1.22,0,0h0Zm40.96,6.93c.43,1.65,6.74,1.42,7.92,1.33,1.37-.1,3.18,.09,3.09-1.74-.07-1.39-.82-2.39-1.85-3.27-.94-.8-2.34-1.53-3.12-2.43-.74-.74-2.15-.43-2.75-1.37,1.52-.97,4.37-4.85,1.91-6.01-1.33-.63-3.22-.95-4.7-.46-2.01,.67-1.61-.26-1.43-2.09,.21-2.18,.53-4.34,.79-6.52,.18-1.49,1.16-2.51,.95-4.11-1.88-2.06-5.69,.54-7.48,1.55-2.74,1.56-4.87,3.36-7.01,5.66-.93,1-3.96,6.27-.36,5.67,.63-.06,1.43-2.55,1.7-3.05,.6-1.1,1.21-1.93,2.15-2.84,1.11-1.08,2.43-1.83,3.99-2.01,1.23-.14,1.82-.67,2.91-1.08-.21,.08-1.04,9.52-1.13,10.62-1.79,.14-4.96,1.91-5.83,3.59-1.82,3.5,3.91,.66,4.72,.25,1.21-.6,2.6-.58,3.61-1.29,1.19-.83,2.65-1.15,4.09-1.18-1.2,1.74-2.48,3.41-3.72,5.13-.66,.91-.72,1.8-1.78,1.38-.48-.17-.97-.23-1.47-.17-3.63,.41,.82,3.21,.93,4.35-2.44-1.16-4.89-2.26-7.33-3.38-1.53-.7-3.94-3.07-4.76-.19-.19,.6,.8,1.52,0,1.92-.69-.32-1.17-.94-1.89-1.23-2.21-.87-3.46,1.58-4.9,2.72-.53,.42-2.42,4.88-3.32,1.95-.52-1.68,1.14-3.31,.73-5.04-.5-2.15-2.91,1.26-3.53,1.63-1.25,.75-2.53,.56-3.89,.83-1.92,.37-4.19-.9-1.54-2,2.06-.85,4.47,.1,6.52-1.34-.89-3.79-6.39-7.33-9.9-8.37-1.2-.35-5.21,.43-5.76-.68,.28-1.47,3.26-1.56,4.32-1.9,2.97-.96,8.68-.04,11.07,2.18,.07-1.15-1.65-3.37-2.3-4.28-.41-.58-.12-1.41-1.08-1.33-.37,.13-.62-.01-.74-.42,.18-.67-1.25-1.43-.55-1.92,1.7,1.19,4.88,4.53,6.88,2.93,2.38-1.91,.58-5.69,.09-8.3-.63-3.38,.01-6.82-1.47-9.98,.02-.77-.36-2.44,.52-2.91,1.21-.64,1.5,1.84,1.62,2.51,.58,3.34,2.59,6.25,3.63,9.44,.74,.99,.82,2.29,1.48,3.32,.68,1.05,2.48,.32,3.46-.03,.43-1.61,.63-3.28,.83-4.93,.77-1.3,1.39-2.69,1.92-4.11,.81-.49,1.58-3.29,2.61-3.29,.31,0-2.08,9.97,.42,10.9,2.27,.85,1.67-3.79,1.78-5.26,.15-1.98-.08-5.08,1.06-6.75,.99-1.46,1.55-4.42-1.24-4.11-1.71,.19-3.39,1.84-4.51,3.02-1.4,1.48-2.18,3.36-3.43,4.94-.06,.74-1.12,3.59-1.65,4.11-.18-.29-.3-.52-.38-.69-1.49-2.74-2.33-5.83-3.82-8.56-.78-1.43-2.01-4.93-4.05-5.01-.26-.91-1.62,.55-1.71,.9-.36,1.42-.11,3.28-.02,4.85,.22,3.67,.61,7.33,1.18,10.97-1.93-.8-3.28-2.38-5.5-2.47-.7,.85-1.83,.55-1.71,1.92,.03,.35,.5,1.61,.06,1.91-1.57-.83-9.55-3.46-7.69,.81,.56,1.3,3.15,2.51,4.17,3.52,.68,.68,3.58,2.69,2.97,3.89-2.99-1.2-8.21-.01-10.66,2.04-.71,.6-1.09,1.42-1.15,2.34,.12,.53,.59,.77,.55,1.37,.85,.89,2.44,.64,3.51,1.02,1.69,.59-.65,2.53-.77,3.91-.76,.65-.94,1.87-.46,2.74,.48,.89,1.21,.48,2.01,.27,1.64-.44,3.15-1.28,4.85-1.56,.88-.15,1.79-.17,2.68-.07,.68-.29,.64-1.17,1.1-1.65,.45,.5,1.26,.58,1.37,1.37-2.09,.32-7.48,1.89-7.97,4.38,.79,3.42,4.14,.39,5.5,2.19-2.25,2.66-4.17,5.59-5.41,8.85-.7,1.83-1.18,3.74-1.46,5.67-.98,.28-1.64,1.9-2.42,2.52-.94,.75-.98,3.45-.15,4.16,1.18,1.02-.33,2.43-.57,3.79-.57,3.14-.66,6.11-.32,9.29,.49,4.46,1.77,8.75,2.99,13.06,.58,2.04,.52,3.95,2.62,4.88,1.55,.68,2.47,2.8,3.85,3.95,1.93,1.6,3.38,2.07,5.87,1.36,1.68-.48,2.81-.67,4.56-.78,2.65-.17,6.3-.68,8.65,.29,1.57,.65,3.88-.16,5.29-.99,.92-.54,.86-.93,1.91-.77,.48,.08,1.33-.04,1.69-.41,.57-.6,1.23-1.96,2.16-.73,.89,1.17,1.87,.69,2.79-.31,1.27-1.39,1.85-3.35,3.4-4.49,1.28-.37,3.33-1.18,4.14-2.13,.9-1.06,1.89-1.39,1.6-3.05-.22-1.27-1.55-1.84-1.9-3.04,.95-2.47-.87-9.76,1.98-10.27,2.45-.44,3.69-2.11,1.38-3.91-.73-.57-1.66-.86-2.36-1.48-.76-.67-.51-1.73-.65-2.66-.17-1.13-1.61-4.34-.86-5.17,.79-.87,2.07-1.18,2.16-2.55-.28-1.44-1.43-2.24-2.63-2.91-2.84-1.58-2.87-3.73-4.6-6.14-.74-1.03-1.69-2.26-1.05-3.46,.64-1.21,1.8-.52,1.73-2.54-.07-1.88-1-3.37,1.06-4.69-.17-.69,.88-1.31,1.04-1.84,.29-.95,2.21,1.13,2.75,1.46,1.21,.73,2.54,1.46,3.08,2.85-1.2-.1-8.49-1.91-7.69,1.17Zm-28.09-23.77c1.28,.66,.87,1.48,.87,2.86-.83-.49-2.91-2.53-3.85-2.47,.1-.78-.08-1.45-.27-2.19,1.15,.49,2.15,1.23,3.25,1.8Zm-12.88,16.84c.14-1.13,1.17-1.8,1.1-3.01,1.65,.08,3.02,.8,4.4,1.64-.03,.15-4.96,1.2-5.5,1.37Zm37.11,13.98c-.23,2.02-2.96,.79-3.3-.28,.12-1.91,3.23-1.05,3.3,.28Zm-28.81-3.29c1.02-1.14,2.57-3.13,4.35-3.01,0,1.27-.69,6.33,1.9,5.23,1.73-.74,3.08-2.74,4.45-3.97,.56-.5,1.09-1.01,1.62-1.53,.47,.2,.95,.27,1.46,.21,.9-.13,1.35,.21,2.08,.92,.14,.14,1.96,1.87,1.96,1.89,0-.25,.57-.32,.77-.28,1.27-.7,1.52-2.47,1.7-3.84,1.75-.12,.98,2.16,2,3.21,.49,.51,2.12,1.55,2.12,2.27-2.17-.08-2.49,1.85-3.85,3.01-1.09-.1-2.7-2.65-3.52-3.34-1.16-.99-2.52-2.91-4.2-1.34-1.23,1.15-2.13,2.96-3.21,4.26-.53,.63-1.45,2.44-2.35,1.87-.71-.45-.88-1.38-1.85-1.45-.96-.06-1.32,.59-1.82,1.25-.7,.92-1.6-.4-2.2-.87-.76-.6-1.49-1.24-2.29-1.83-1.1-.81,.17-1.89,.86-2.67Zm23.33,14.23c.17-.23,.26-.5,.26-.79,1.55,.9,3.28,2.03,4.67,3.29,1.34,.65,2.83,1.2,3.87,2.31,.29,.31,.96,1.14,.2,1.47-.6,.26-.42,.68-1.04,.88-.27,1.08-.77,2.52-2.1,1.95-1.47-.62-4.6-4.73-6.39-3.02-.61,.59-1,1.07-1.54,1.69-.84,.96-2.41-1.41-2.62-2,2.25-.01,3.55-4.31,4.67-5.76-.49,.63-.02,0,.02-.03Zm-20.63,20.59c-.1-.57-.66-.54-.26-.18-.61-.44-.83-.86-.57-1.73,.82-.32,.27,.86,1.1,.55,.19,.63-.38,.78-.27,1.37Zm.27-1.92c-.1-.54-.24-1.07-.43-1.59-.47-1.11-1.01-.34-1.37,.33-.21,.39-1.59,1.55-1.33,.24,.14-.73,1.19-1.14,1.75-1.45-.73,.4,.52-1.31,0,0,.4-1,1.33-1.61,1.87-2.52,.61-1.03,.83-.77,1.93-.17,1.65,.9,2.88,2.42,4.72,2.97-.42,1.14-1.93,4.44-3.14,3.32-.55-.5-1.05-1.35-1.91-1.14-.94,.23-.57,.39-1.03-.18-.04-.06-.86,.29-1.06,.2Zm1.93-24.94c-.35-1.99,2.02,.44,2.25,.63,1.34,1.06,2.94,1.7,4.34,2.66-.93,1.43-2.24,2.58-3.02,4.11-.74-.27-2.25-1.16-2.46-1.75-.55-1.6-2.07-.76-1.94,.65-1.11-.53-4.37-2.02-2.1-3.06,.96-.44,2.21-2.37,2.93-3.24-.83,1-.08-.44,0,0Zm8.8-5.21c.55-2.05,2.67,.94,3.3,1.58,.56,.58,2.24,.94,1.75,1.74-.3,.49-.83,.72-.92,1.34-1.21-.54-1.89-1.39-3.13-.11-1.47,1.52-1.52,1.82-3.46,.92-2.09-.98-.88-1.3,.1-2.63,.7-.95,1.56-1.96,2.37-2.85-.66,.72,.1-.36,0,0Zm-8.8,15.08c.6,.04,1.51,.08,1.37-.82,1.24,.59,2.11,1.68,3.2,2.49,1.37,1.02,1.79,1.03,.55,2.62-.69,.89-1.48,1.69-1.73,2.84-.41,1.9-.66,.11-1.74,.27,.43-1.49-1.33-4.94-2.2-2.46-.81-.29,.32-2.27-.82-2.19-1.1,0-1.02,1.19-1.71,1.72-.95,.74-.78-.93,.29-1.45,1.07-.52,2.27-1.93,2.79-3.01Zm6.87,15.35c.49-.79,1.04-1.56,1.61-2.3,.94-1.2,.41-.49,1.41-.44,.46,1.39,1.39,2.52,2.58,3.37,1.4,1-.43,1.81-.66,3.21-1.49-.24-2.26-1.9-3.75-.39-.5,.51-.82,1.17-1.2,1.76-.78-.19-1.27-.75-1.73-1.35-1.01-1.29,1.12-2.64,1.73-3.86Zm4.95-5.21c-.61-.58-1.25-1.14-1.93-1.64-.59-.1-.74,.46-1.37,.27-.78,.69-1.09,2.42-2.47,1.64,.63-.91,1.54-1.64,2.47-1.64-.37,0,.23-.69,0,0,.22-.68,.96-.86,1.37-1.37-.13-.6-1.3-1.1-1.65-1.1,.75-.9-.45-1.24-1.1-.82,.95-1.25,1.91-2.5,2.75-3.84,1.23,1.35,2.28,2.88,3.68,4.09,1.48,1.28-1.16,2.9-1.75,4.41Zm3.26-12.28c-.47,.76-1.66,3.57-2.5,3.01-.86-.57-.92-1.88-2.14-1.97,.01-.18,1.32-.79,1.54-1.2,.43-.79,.38-1.3,.11-2.36-2.28-.88-3.4,2.96-1.92,3.02-.42,.63-1.47,.53-1.65,1.37-1-.82,.41-2.72-.55-3.56-1.17,.76-1.5,2.27-1.65,3.56-.69-.17-1.04-.78-1.65-1.1,2.15-2.35,3.95-5,6.05-7.4,1.28,.99,2.07,2.44,3.19,3.58,1.41,1.42,2.47,.95,1.17,3.06Zm-27.63-3.24c.57-.76,1.05-.62,1.87-1.08,.66-.38,.75-1.18,1.05-2.04-.37-.49-1.31-.32-1.37-1.1,.1-1.95,2.54-1.88,3.02-3.57,1.87,.65,2.8,2.64,4.67,3.29-.62,1.4-1.75,3.3-3.37,2.26-.59-.37-3.4-1.11-2.56,.53,1.11,2.18,5.08,4.65,7.31,5.7-.6,1.32-1.82,2.13-2.77,3.18-1.04,1.15-1.45-.25-2.48-.88-1.02-.62-1.46-1.42-2.52-.13-.76,.93-.96,2.21-1.85,3.05-1.11-1.13,1.31-2.89-.34-4.05-.45-.32-1.12,.02-1.31,.17,0,.02,0,.03,0,.05v-.04s-.05,.04-.05,.05c-.31-.03-.01-1.77,.05-.05h0c-.02-1.57,1.37-2.35,1.65-3.79-.18-.95-1.58-.48-1.65,.27-.73-.09,.56-1.69,.65-1.82Zm-2.3,15.79c-.16,.68,.28,1.01,.28,1.65-1.07-.03-.78-1.21-.28-1.65-.5,.44,.18-.83,0,0,.18-.83,.43-1.58,1.37-1.64-.47,.54-.63,1.37-1.37,1.64Zm.91,1.13c.34-.84,1.05-1.53,1.4-2.38,.32-.76,.44-1.66,.98-2.31-.3-.16-.47-.4-.53-.72,.2,.32,1.76-.35-.02-.1,1.77-.24,2.8-1.53,3.57-3.01,.88-.15,2.01,1.54,2.52,2.08,.98,1.04,2.88,2.49,1.88,3.77-.87,1.11-1.62,2.41-3.02,2.92-.24-2.21-3.99-2.57-4.4-.27-.19-.42-1.06,0-1.1-.55-.67,.15-.43,.94-.43,1.38,0,.59-1.28,.24-.86-.8Zm.73,13.12c-.14-.14,.2-.35,.28-.27,.14,.14-.2,.35-.28,.27Zm.28-.55c-.14-.14,.2-.35,.28-.28,.14,.14-.2,.35-.28,.28Zm1.65-6.03c-1.05-.07-1.37,.67-1.99,1.3-.14,.14-.34,.26-.48,.33h0c-.21,.1-.16,.09-.02,.01-.35,.07,.15-1.63,.02-.01h0c.09-1.04,1.46-4.01,2.01-4.34,1.22-.73,1.69-2.88,2.98-1.14,1.19,1.6,2.52,3.1,3.92,4.52,1.06,1.06-.02,2.77-1.49,3.17-.04-1.1-2.29-3.17-3.3-3.29-1.15-.12-1.49,1.16-2.75,.82-.2-.99,1.05-.56,1.1-1.37Zm4.12,10.69c-.77-.62-2.47-.75-2.47-1.37-.65,.14-.55,.77-1.37,.55,.28-.83-.72-.5-1.1-.55,.04-1.17,.08-2.76,1.1-3.57-.12-.21-.3-.3-.55-.27,.05-.56,.91-.13,1.1-.55-.12-.53-.58-.77-.55-1.37,.55,.09,.73-.38,1.27-.29-.38,0,1.06,1.26,.4,.38-.1-.12-.19-.24-.29-.36,.13,.15,.22,.26,.29,.36,1.05,1.27,2.05,2.57,2.96,3.94,1.06,1.58-.06,1.75-.78,3.11Zm9.35,3.29c-1.57,0-2.28,.94-3.75,1.58-1.3,.57-2.05-.67-3.21-1.28-1.77-.93-.01-3.96,1.73-3.87-.96-.05,.21-.24,0,0,.23-.33,.32-.69,.28-1.09,1.15,.48,5.28,3.28,4.95,4.66Zm2.06-8.82c-.81,1.17-2.15,1.84-2.89,3.06-1.08-.74-1.82-1.89-3.03-2.47-1.13-.14-1.73,.62-2.75,.82-.03-.64-.47-.92-.82-1.37,.42-.73,1.13-1.2,1.7-1.8,.92-.98,2.26-.03,3.13-1.3-.23,.29-.07-.48,.04-.55-.2-.85-.61-2.81,.53-2,.62,.45,1.36,1.46,1.95,2.11,.86,.94,3.04,2.18,2.14,3.5Zm17.77,6.76c-.97,1.01-3.23-.4-4.56,.3-1.93,1.02-4.24,.64-6.47,.8-2.11,.15-4.21,.36-6.32,.42,.28-.41,.37-.87,.27-1.37,.8,.34,1.83,.88,2.66,.33,.6-.4,1.21,.11,1.52-.2,.67-.67,.03-1.44-.79-1.19-1.34,.41-1.55,.04-1.47-1.4-.72-.17-.66,.72-1.37,.55-.18-1.01,.69-1.69,1.25-2.39,.85-1.05-.55-1.44,.25-2.31,.75-.82,1.65-2.16,2.62-2.16,.12,1.07,1.31,1.27,1.65,2.19-.32-.85,.36,.4,.1,.13,.54,.66,1.72,1.73,1.35,2.37-.28,.48-.8,.76-1.13,1.2-.7,.92-.23,2.8,1.22,2.29,1.8-.63,2.66-2.5,3.87-3.89,.64-.73,1.31-1.44,2.02-2.1,.75,.49,1.28,1.22,1.74,1.96,.63,1.02,1.59,1.68,2.23,2.71,.68,1.09,.11,.98-.63,1.76Zm-8.83-8.9c1.1-1.77,2.24-3.52,3.25-5.34,.52-.94,1-1.9,1.42-2.88,.3,.04,.57,.13,.82,.27,.8,1.43,1.89,2.66,3.07,3.79,1.41,1.35,2.72,1.68,1.1,3.39-1.02,1.08-1.32,1.73-2.46,.44-.74-.83-1.72-.98-2.66-.35-.82,.56-1.22,1.51-2.01,2.11-1.59,1.22-1.37-.74-2.53-1.43Zm16.18,3.43c-.38,.52-1.46,2.13-2.24,1.76-.48-.22-.93-.97-1.43-.26-.58,.82-2.38-1.31-2.8-2.24,.42,.74,1.61-1.5-.09-.23,1.21-.92,2.32-1.95,3.38-3.03,.12-.12,2.43-2.7,2.14-1.06-.19,1.07-.65,1.34,.26,2.25,.79,.79,1.61,1.67,.77,2.81Zm2.53-10.67c-.12,.52-.66,.72-.85,1.21-.3,.7-1.26,2.83-2.2,1.37-.29,.31-.38,.68-.28,1.09-.92,.14-.96-1.28-1.98-.7-1.22,.7-1.54,.02-2.44-.92-1.79-1.88-3.3-4.01-5.2-5.78-2.6,0-3.07,1.46-4.12,3.56-1.36-.37-3.27-2.54-1.1-3.02,.09-1.67,2.79-3.37,3.77-4.56,1.02-1.23,1.14-1.81,2.6-.7,.62,.47,1.16,1.04,1.78,1.52,.93,.72,2.05,1.18,2.99,1.89,.48,.37,2.11,1.38,2.33,1.84,2.04,0,2.71,.8,4.4,1.64-.1,.57,.46,.86,.3,1.53Zm-.02-9.21c.38,.51,.63,1.08,1.37,1.1,.04,1,1.23,1.03,.49,2-.6,.77-1.61,1.07-2.5,1.34-1.1,.33-3.41-.09-4-1-.7-1.09-1.62-1.3-.38-2.47,.72-.67,1.24-1.64,2.27-1.51,.95,.11,1.77,.6,2.75,.54Zm-3.03-11.24c-1.62-2.12,.76,.33,0,0,3.05,1.33,1.17,2.21,0,4.11-.87-.45-1.37,.9-1.93,.82-.72-.06-.97-.71-1.54-1.02-.39-.18-.79-.21-1.21-.08-.37-.48-.78-.93-1.24-1.35-.88-.81-3.62-3.6-4.88-2.55-1.18,.99-3.62-.9-3.78-2.4,1.84-.7,2.98-2.29,4.16-3.77,.84-1.05,1.79,0,2.66,.74,1,.85,1.38,.06,2.54,.86,1.91,1.33,3.79,2.77,5.21,4.64Zm-15.17-11.79c-.23,.12-.48,.23-.77,.28,.85-.14,.93-.24,.77-.28Zm-14.05,38.01c.05,.2,.08,.34,.08,.37,0-.31-.04-.39-.08-.37Zm9.05-71.31c.13,.23,.25,.46,.38,.69,.44-.44-.97-1.9-.38-.69Zm-11.99,6.72c1.09-.07,.12-.94,0,0h0Zm-10.47,64.69s.01,0,.02,0h-.02Zm23.66-7.13c-.35-.01,.59,1.79,0,0h0Zm-5.22-13.98c.6,.31,2.14-2.34,0,0h0Zm-4.67,1.37c-.53,1.12,.79,.05,0,0h0Zm13.19,21.1c.69,.41,1.64-2.66,0,0h0Zm18.41-8.77c-.49-.24-.08,.44,0,0h0Zm1.65-6.58c-.81-.02,.03,.7,0,0h0Zm-20.34-36.18c.16-1.87,.03-1.64-.06-1.07,.06,.36,.09,.72,.06,1.07Zm-7.7-4.39c1.71,1.09,2.93,2.59,4.16,4.15,.49,.63,1.05,1.09,1.89,1.13,1.21,.05,.71-.53,1.65-.89-.18,.07-.13-.61-.06-1.07-.54-3.06-4.23-6.04-6.71-7.17-1.92-.87-4.55-.71-4.77,1.94,.07,1.21,.76,2.16,1.1,3.29,.09,1.29,.35,2.6,.67,3.86,.48,1.92,2.79,1.8,2.47-.39-.1-.68-.97-4.61-.39-4.84Zm5.5,40.84c-.07,.99-.07,1.9,1.1,1.65,.07-.99,.07-1.89-1.1-1.65Zm10.44,3.57c-.38,.35-.27,1.19-.27,1.92,1.97,.5,2.08-2.11,.27-1.92Z"/></g></g></g></svg>