<?xml version="1.0" encoding="UTF-8"?><svg id="Capa_2" xmlns="http://www.w3.org/2000/svg" viewBox="0 0 152.73 192.29"><defs><style>.cls-1{fill:#fff;}.cls-2{fill:#d5d0c5;}.cls-3{fill:none;stroke:#fff;stroke-miterlimit:10;stroke-width:4px;}</style></defs><g id="Capa_1-2"><g id="Icon_Especialidades"><circle class="cls-3" cx="76.36" cy="76.36" r="74.36"/><g><path class="cls-1" d="M6.78,186.26c-.19,0-.37-.06-.53-.17-.17-.11-.25-.28-.25-.51v-17.68c0-.21,.08-.37,.25-.48,.16-.11,.34-.17,.53-.17h9.26c.22,0,.39,.08,.49,.25,.1,.17,.16,.33,.16,.51,0,.23-.06,.42-.17,.58-.11,.17-.27,.25-.48,.25H7.71v7.15h4.08c.21,0,.37,.08,.48,.23,.11,.16,.17,.34,.17,.55,0,.16-.05,.31-.16,.47-.1,.16-.27,.23-.49,.23H7.71v7.2h8.32c.21,0,.37,.08,.48,.23,.11,.16,.17,.35,.17,.57,0,.19-.05,.37-.16,.53-.1,.17-.27,.25-.49,.25H6.78Z"/><path class="cls-1" d="M22.19,186.44c-.81,0-1.53-.1-2.13-.31s-1.08-.46-1.43-.74-.52-.56-.52-.82c0-.12,.03-.24,.08-.35,.05-.11,.13-.21,.22-.3,.09-.09,.19-.13,.3-.13,.19,0,.4,.1,.64,.3s.56,.4,.99,.61,1.03,.31,1.81,.31c.99,0,1.68-.19,2.08-.56s.6-.8,.6-1.29c0-.57-.15-1.02-.45-1.34-.3-.32-.7-.57-1.2-.75-.49-.18-1.01-.35-1.56-.49s-1.07-.34-1.56-.57-.89-.56-1.2-.97-.46-.98-.46-1.69c0-.55,.14-1.11,.42-1.65s.71-1,1.31-1.35c.6-.36,1.39-.53,2.38-.53,.57,0,1.13,.06,1.66,.18,.54,.12,.97,.28,1.31,.48s.51,.4,.51,.61c0,.09-.03,.2-.09,.34s-.14,.26-.25,.38c-.1,.11-.22,.17-.36,.17s-.33-.07-.56-.2c-.23-.13-.53-.25-.9-.36-.36-.11-.8-.17-1.3-.17-.62,0-1.13,.11-1.51,.34-.38,.22-.66,.49-.83,.79-.17,.3-.26,.6-.26,.9,0,.5,.16,.88,.47,1.14,.31,.26,.72,.47,1.21,.64,.49,.17,1.01,.32,1.56,.47s1.07,.35,1.56,.61c.49,.26,.89,.62,1.2,1.09,.3,.47,.46,1.09,.46,1.87,0,1.02-.36,1.84-1.09,2.44-.73,.61-1.76,.91-3.09,.91Z"/><path class="cls-1" d="M29.76,192.29c-.23,0-.42-.07-.58-.21-.17-.14-.25-.29-.25-.47v-17.03c0-.19,.08-.34,.25-.46,.16-.11,.36-.17,.58-.17s.42,.06,.57,.17c.16,.11,.23,.26,.23,.46v1.2c.29-.5,.74-.96,1.33-1.37s1.31-.61,2.16-.61,1.65,.22,2.35,.66c.7,.44,1.27,1.03,1.69,1.75,.42,.73,.64,1.54,.64,2.44v2.83c0,.85-.21,1.66-.64,2.42s-.98,1.37-1.68,1.83c-.69,.46-1.46,.69-2.29,.69s-1.51-.2-2.13-.6c-.62-.4-1.08-.87-1.38-1.4v7.18c0,.17-.08,.33-.25,.47-.17,.14-.37,.21-.61,.21Zm4.06-7.41c.57,0,1.1-.16,1.59-.48,.49-.32,.88-.74,1.18-1.26,.3-.52,.46-1.07,.46-1.64v-2.83c0-.55-.15-1.08-.44-1.59s-.69-.91-1.18-1.24c-.49-.32-1.04-.48-1.65-.48-.52,0-1.02,.13-1.5,.4-.48,.27-.87,.65-1.18,1.13-.31,.49-.47,1.08-.47,1.77v3.64c0,.26,.14,.59,.42,1,.28,.41,.66,.77,1.14,1.09,.49,.32,1.03,.48,1.64,.48Z"/><path class="cls-1" d="M46.64,186.44c-1.09,0-2.06-.21-2.9-.62s-1.5-.99-1.98-1.73c-.48-.74-.71-1.6-.71-2.59v-2.91c0-.87,.22-1.66,.68-2.39,.45-.73,1.05-1.31,1.81-1.74,.75-.43,1.58-.65,2.48-.65s1.67,.2,2.41,.61c.74,.41,1.33,.97,1.78,1.68,.45,.71,.68,1.53,.68,2.44,0,.68-.11,1.16-.34,1.44-.23,.29-.51,.46-.85,.53s-.7,.1-1.08,.1h-5.88v.96c0,1.04,.37,1.86,1.12,2.47s1.69,.91,2.83,.91c.69,0,1.23-.09,1.61-.26,.38-.17,.68-.35,.9-.52,.22-.17,.42-.26,.61-.26,.14,0,.26,.05,.38,.14,.11,.1,.2,.2,.26,.33s.09,.23,.09,.34c0,.19-.16,.42-.47,.7-.31,.28-.76,.52-1.35,.71-.59,.2-1.28,.3-2.08,.3Zm-3.9-7.07h5.2c.52,0,.87-.06,1.04-.17,.17-.11,.26-.35,.26-.72,0-.55-.13-1.08-.4-1.59-.27-.5-.65-.91-1.14-1.22-.49-.31-1.06-.47-1.7-.47-.59,0-1.13,.14-1.62,.43-.49,.29-.89,.67-1.18,1.14s-.44,1.01-.44,1.6v.99Z"/><path class="cls-1" d="M58.02,186.44c-1.14,0-2.09-.22-2.83-.65s-1.3-1.02-1.66-1.77c-.36-.75-.55-1.59-.55-2.52v-2.78c0-.92,.18-1.75,.53-2.5,.35-.75,.91-1.33,1.66-1.77s1.7-.65,2.85-.65c.73,0,1.37,.09,1.91,.27,.55,.18,.97,.4,1.27,.66,.3,.26,.46,.51,.46,.75,0,.1-.03,.22-.09,.35s-.15,.24-.26,.34c-.11,.1-.24,.14-.38,.14-.16,0-.33-.08-.53-.25s-.47-.33-.82-.48-.84-.23-1.48-.23c-1.13,0-1.98,.3-2.56,.9-.58,.6-.87,1.42-.87,2.46v2.78c0,1.06,.29,1.88,.87,2.48,.58,.6,1.44,.9,2.59,.9,.66,0,1.17-.08,1.53-.25,.36-.16,.65-.33,.85-.49,.2-.16,.38-.25,.56-.25,.16,0,.29,.04,.4,.13,.11,.09,.2,.19,.26,.31s.09,.25,.09,.39c0,.23-.16,.47-.47,.74-.31,.27-.75,.5-1.31,.69-.56,.19-1.23,.29-2.01,.29Z"/><path class="cls-1" d="M64.96,170.32c-.31,0-.58-.11-.81-.32-.23-.22-.34-.47-.34-.77s.11-.55,.34-.75c.22-.21,.49-.31,.81-.31s.58,.1,.81,.31,.34,.46,.34,.75-.11,.55-.34,.77-.49,.32-.81,.32Zm-.03,15.94c-.22,0-.42-.07-.58-.21s-.25-.29-.25-.47v-11c0-.19,.08-.34,.25-.46,.17-.11,.36-.17,.58-.17,.24,0,.45,.06,.61,.17,.17,.11,.25,.26,.25,.46v11c0,.17-.08,.33-.25,.47s-.37,.21-.61,.21Z"/><path class="cls-1" d="M71.75,186.44c-.97,0-1.8-.28-2.5-.84-.69-.56-1.04-1.43-1.04-2.59,0-.95,.26-1.69,.77-2.2s1.22-.87,2.13-1.07,1.96-.3,3.16-.3h1.33v-.62c0-.55-.1-1.11-.3-1.65s-.52-1-.96-1.35c-.44-.35-1.04-.53-1.81-.53-.57,0-1.04,.06-1.4,.18s-.65,.25-.86,.38-.38,.2-.52,.2c-.21,0-.37-.1-.49-.31s-.18-.41-.18-.6c0-.23,.18-.44,.53-.64s.81-.36,1.35-.49,1.09-.2,1.62-.2c1.16,0,2.08,.24,2.77,.71,.68,.48,1.18,1.1,1.48,1.86,.3,.76,.46,1.58,.46,2.44v6.76c0,.19-.07,.35-.22,.48-.15,.13-.35,.2-.61,.2-.21,0-.39-.07-.55-.2s-.23-.29-.23-.48v-1.14c-.45,.5-1,.96-1.64,1.38-.64,.42-1.4,.62-2.29,.62Zm.42-1.43c.57,0,1.12-.15,1.64-.44,.52-.29,.95-.65,1.29-1.08s.51-.83,.51-1.21v-1.66h-1.09c-.78,0-1.52,.05-2.22,.14-.7,.1-1.27,.3-1.72,.61-.44,.31-.66,.81-.66,1.48,0,.75,.22,1.29,.66,1.64,.44,.35,.97,.52,1.6,.52Z"/><path class="cls-1" d="M81.47,186.26c-.23,0-.42-.07-.58-.21-.17-.14-.25-.29-.25-.47v-18.54c0-.19,.08-.34,.25-.46,.16-.11,.36-.17,.58-.17,.24,0,.45,.06,.61,.17,.16,.11,.25,.26,.25,.46v18.54c0,.17-.08,.33-.25,.47-.17,.14-.37,.21-.61,.21Z"/><path class="cls-1" d="M86.67,170.32c-.31,0-.58-.11-.81-.32s-.34-.47-.34-.77,.11-.55,.34-.75,.49-.31,.81-.31,.58,.1,.81,.31c.22,.21,.34,.46,.34,.75s-.11,.55-.34,.77c-.23,.22-.49,.32-.81,.32Zm-.03,15.94c-.23,0-.42-.07-.58-.21-.17-.14-.25-.29-.25-.47v-11c0-.19,.08-.34,.25-.46,.16-.11,.36-.17,.58-.17,.24,0,.45,.06,.61,.17,.16,.11,.25,.26,.25,.46v11c0,.17-.08,.33-.25,.47-.17,.14-.37,.21-.61,.21Z"/><path class="cls-1" d="M94.89,186.44c-.82,0-1.58-.23-2.29-.69-.71-.46-1.27-1.07-1.69-1.83s-.62-1.57-.62-2.42v-2.83c0-.9,.21-1.72,.62-2.44,.42-.73,.98-1.31,1.69-1.75,.71-.44,1.49-.66,2.34-.66s1.56,.2,2.15,.61c.58,.41,1.01,.86,1.29,1.37v-8.74c0-.19,.09-.34,.26-.46,.17-.11,.37-.17,.6-.17,.26,0,.46,.06,.61,.17,.15,.11,.22,.26,.22,.46v18.54c0,.17-.07,.33-.22,.47-.15,.14-.35,.21-.61,.21-.21,0-.39-.07-.55-.21s-.23-.29-.23-.47v-1.14c-.28,.54-.74,1.01-1.39,1.4-.65,.4-1.37,.6-2.17,.6Zm.29-1.56c.62,0,1.17-.16,1.65-.48,.48-.32,.85-.68,1.13-1.09s.42-.74,.42-1v-3.64c0-.69-.16-1.28-.47-1.77-.31-.48-.71-.86-1.2-1.13-.49-.27-.99-.4-1.51-.4-.59,0-1.13,.16-1.61,.48-.49,.32-.88,.73-1.17,1.24s-.44,1.03-.44,1.59v2.83c0,.57,.15,1.12,.44,1.64,.29,.52,.68,.94,1.17,1.26,.48,.32,1.01,.48,1.59,.48Z"/><path class="cls-1" d="M106.04,186.44c-.97,0-1.8-.28-2.5-.84-.69-.56-1.04-1.43-1.04-2.59,0-.95,.25-1.69,.77-2.2s1.22-.87,2.13-1.07,1.96-.3,3.16-.3h1.33v-.62c0-.55-.1-1.11-.3-1.65-.2-.55-.52-1-.96-1.35-.44-.35-1.04-.53-1.81-.53-.57,0-1.04,.06-1.4,.18-.36,.12-.65,.25-.86,.38s-.38,.2-.52,.2c-.21,0-.37-.1-.49-.31-.12-.21-.18-.41-.18-.6,0-.23,.18-.44,.53-.64s.81-.36,1.35-.49c.55-.13,1.09-.2,1.62-.2,1.16,0,2.08,.24,2.77,.71,.68,.48,1.18,1.1,1.48,1.86,.3,.76,.46,1.58,.46,2.44v6.76c0,.19-.07,.35-.22,.48s-.35,.2-.61,.2c-.21,0-.39-.07-.55-.2-.16-.13-.23-.29-.23-.48v-1.14c-.45,.5-1,.96-1.64,1.38-.64,.42-1.4,.62-2.29,.62Zm.42-1.43c.57,0,1.12-.15,1.64-.44,.52-.29,.95-.65,1.29-1.08s.51-.83,.51-1.21v-1.66h-1.09c-.78,0-1.52,.05-2.22,.14-.7,.1-1.27,.3-1.72,.61-.44,.31-.66,.81-.66,1.48,0,.75,.22,1.29,.66,1.64s.97,.52,1.6,.52Z"/><path class="cls-1" d="M118.86,186.44c-.82,0-1.58-.23-2.29-.69-.71-.46-1.27-1.07-1.69-1.83s-.62-1.57-.62-2.42v-2.83c0-.9,.21-1.72,.62-2.44,.42-.73,.98-1.31,1.69-1.75,.71-.44,1.49-.66,2.34-.66s1.56,.2,2.15,.61c.58,.41,1.01,.86,1.29,1.37v-8.74c0-.19,.09-.34,.26-.46,.17-.11,.37-.17,.6-.17,.26,0,.46,.06,.61,.17,.15,.11,.22,.26,.22,.46v18.54c0,.17-.07,.33-.22,.47-.15,.14-.35,.21-.61,.21-.21,0-.39-.07-.55-.21s-.23-.29-.23-.47v-1.14c-.28,.54-.74,1.01-1.39,1.4-.65,.4-1.37,.6-2.17,.6Zm.29-1.56c.62,0,1.17-.16,1.65-.48,.48-.32,.85-.68,1.13-1.09s.42-.74,.42-1v-3.64c0-.69-.16-1.28-.47-1.77-.31-.48-.71-.86-1.2-1.13-.49-.27-.99-.4-1.51-.4-.59,0-1.13,.16-1.61,.48-.49,.32-.88,.73-1.17,1.24s-.44,1.03-.44,1.59v2.83c0,.57,.15,1.12,.44,1.64,.29,.52,.68,.94,1.17,1.26,.48,.32,1.01,.48,1.59,.48Z"/><path class="cls-1" d="M132.43,186.44c-1.09,0-2.06-.21-2.9-.62s-1.5-.99-1.98-1.73c-.48-.74-.71-1.6-.71-2.59v-2.91c0-.87,.23-1.66,.68-2.39,.45-.73,1.05-1.31,1.81-1.74s1.58-.65,2.48-.65,1.67,.2,2.4,.61,1.33,.97,1.78,1.68c.45,.71,.68,1.53,.68,2.44,0,.68-.11,1.16-.34,1.44s-.51,.46-.84,.53-.7,.1-1.08,.1h-5.88v.96c0,1.04,.37,1.86,1.12,2.47,.75,.61,1.69,.91,2.83,.91,.69,0,1.23-.09,1.61-.26,.38-.17,.68-.35,.9-.52,.22-.17,.42-.26,.61-.26,.14,0,.26,.05,.38,.14,.11,.1,.2,.2,.26,.33s.09,.23,.09,.34c0,.19-.16,.42-.47,.7-.31,.28-.76,.52-1.35,.71-.59,.2-1.28,.3-2.08,.3Zm-3.9-7.07h5.2c.52,0,.87-.06,1.04-.17,.17-.11,.26-.35,.26-.72,0-.55-.13-1.08-.4-1.59-.27-.5-.65-.91-1.14-1.22-.49-.31-1.06-.47-1.7-.47-.59,0-1.13,.14-1.62,.43s-.89,.67-1.18,1.14-.44,1.01-.44,1.6v.99Z"/><path class="cls-1" d="M142.55,186.44c-.82,0-1.53-.1-2.13-.31-.61-.21-1.08-.46-1.43-.74s-.52-.56-.52-.82c0-.12,.03-.24,.08-.35,.05-.11,.12-.21,.22-.3,.09-.09,.2-.13,.3-.13,.19,0,.4,.1,.64,.3,.23,.2,.56,.4,.99,.61s1.03,.31,1.81,.31c.99,0,1.68-.19,2.08-.56,.4-.37,.6-.8,.6-1.29,0-.57-.15-1.02-.46-1.34-.3-.32-.7-.57-1.2-.75-.49-.18-1.01-.35-1.56-.49s-1.07-.34-1.56-.57c-.49-.23-.89-.56-1.2-.97-.3-.42-.46-.98-.46-1.69,0-.55,.14-1.11,.42-1.65s.71-1,1.31-1.35c.6-.36,1.39-.53,2.38-.53,.57,0,1.13,.06,1.66,.18,.54,.12,.98,.28,1.31,.48s.51,.4,.51,.61c0,.09-.03,.2-.09,.34-.06,.14-.14,.26-.25,.38-.1,.11-.23,.17-.36,.17s-.33-.07-.56-.2c-.23-.13-.53-.25-.9-.36-.36-.11-.8-.17-1.3-.17-.62,0-1.13,.11-1.51,.34-.38,.22-.66,.49-.83,.79-.17,.3-.26,.6-.26,.9,0,.5,.16,.88,.47,1.14,.31,.26,.71,.47,1.21,.64s1.01,.32,1.56,.47,1.07,.35,1.56,.61c.49,.26,.89,.62,1.2,1.09,.3,.47,.46,1.09,.46,1.87,0,1.02-.36,1.84-1.09,2.44-.73,.61-1.76,.91-3.09,.91Z"/></g><g id="pan"><path class="cls-2" d="M55.76,61.15c1.2,.03-.68-.75,0,0h0Zm-19.6,17.27c.79,1.61,1.19,3.75,2.91,4.43-.71-.47,1.78-1.4,1.25-.22,1.32-2.62-1.81-6.48-3.35-8.22-.72-.82-7.14-4.62-6.41-1.45,.6,2.56,4.38,2.96,5.59,5.46Zm20.54-6.05c2.29,.79,1.05-4.72,.77-5.81,.13-1.02-.22-5.37-1.71-5.41-1.06-1.18-1.98,1.58-1.99,2.09-.03,1.18,.26,1.97,.37,3.09,.2,2.01,.22,5.22,2.56,6.03Zm-15.47-6.4c1.37,2.04,2.26,4.04,3.06,6.34,.59,1.69,1.8,3.41,2.81,1.18,1.25-2.75-1.64-7.79-3.66-9.72-.97-.94-2.02-2.1-2.69-3.3-.77-1.37-.74-3.2-1.53-4.55-.08-.02-.49-.45-.31-.45-2.49,0-1.42,3.87-1.14,5.41,1.06,1.76,2.3,3.39,3.45,5.1Zm-2.31-10.51c.12,.14,.21,.3,.31,.45,.04,.01,0-.09-.31-.45Zm1.14,27.6c-.38-.02-.7-.1-1-.22,.16,.1,.46,.19,1,.22Zm.26-.43c-.07,.15-.16,.29-.26,.43,.13-.17,.2-.31,.26-.43Zm37.41-6.4c-.72,.19-1.44,.41-2.16,.62,.29-.04,2.47-.58,2.16-.62Zm3.43,12.52c0,.16,.23,.32,.28,0,0-.16-.23-.32-.28,0Zm-12.6-6.75c.37,.19-.39,.44-.25-.08-.16,.57-1.11,2.72,.57,2.28,1.57-.26,.67-1.79-.33-2.2Zm59.97-42.48c-1.05,1.61,.33-.04,0,0h0Zm.87-3.5c-1.44-.5-2.4,.68-3.42,1.66-1.28,1.25-2.54,1.56-3.94,2.53-2.38,1.64-4.91,3.69-7.04,5.63-2.62,2.4-6.46,3.95-8.98,6.51-1.22,1.24-2.62,2.32-3.93,3.51-1.4,1.29-2.99,2.36-4.48,3.54-3.45,2.74-6.6,5.79-10.12,8.48-1.33,1.01-2.27,2.39-4.05,2.37-.35,.87-.88,1.64-1.57,2.28-1.12,1.02-.57,.14-1.72,.02-4.27-.45-9.71,2.31-13.65,3.79-4.3,1.62-8.61,3.23-12.77,5.2-3.89,1.84-7.65,3.69-11.4,5.81-3.91,2.21-7.36,4.8-11.54,6.46-2.17,.87-4.16,2.06-6.05,3.43-.56,.41-2.83,1.85-2.94,2.61-1.52,.84-.91,2.62-.58,3.88,.42,1.62,.59,3.1,1.02,4.84,.36,1.41,1.07,1.68,2.43,2.29,1,.45,1.41,1.06,2.21,1.79,1.49,1.37,3.22,2.45,5.02,3.37,3.32,1.7,7.95,.28,11.53-.47,4.43-.94,8.87-1.99,13.09-3.65,3.69-1.45,6.51-3.97,9.94-5.7,2.25-1.13,4.32-2.57,6.46-3.88,1.64-1.02,3.42-1.72,4.26-3.5,.38-.81,5.61-6.78,4.16-7.55-.24-.13-.47,.41-.69,.32-.39-.15,.54-1.71,.52-1.98-4.01,1.37-6.13,6.39-9.71,8.48-1.55,.91-9.54,7.35-10.48,5.67-.36-.64-1.66-4.54-2.53-3.7-1.03,.98-.27,3.16,.49,4.05,1.46,1.73-.34,2.02-1.74,1.27-1.61-.87-3.89-1.49-5.71-1.83,.18,.69,1.88,3.79,1.14,4.27-1.67-.48-1.97-3.39-3.14-4.55-.11-.56-1.22-.8-.57-1.42,1.21-.15,2.17-.79,3.21-1.35,2.35-1.27,5.15-1.94,7.21-3.62,1.04-.85,1.61-.99,2.73-1.45,.87-.36,1.51-1.02,2.41-1.46,.95-.47,1.74-1.27,2.82-1.46,1.27-.22,1.65-1.01,2.96-1.31,2.41-.55,4.31-3.04,6.13-4.63,.8-.7,1.23-1.88,2.21-2.35,.28-.72,.5-1.62,1.43-1.71,.78,1.08-1.16,2.76,.57,3.42,.11-.35-.35-1.67,.28-1.71,.33,.91,2.02,3.93,2.97,1.58,.74-1.84-.52-4.11-.85-5.89-.25-1.33,.17-2.49,.68-3.71,.51-1.22,1.82-1.63,2.82-2.48,1-.86,1.92-1.8,2.98-2.58,1.07-.81,1.94-.24,3.18-.28-.59-.03,.59-.58,.21,0,.5-.75,1.62-1.25,2.24-2.03,.99-1.26,2.61-1.97,3.99-2.74,2.88-1.6,6.04-2.77,8.67-4.73,2.83-2.1,5.4-4.52,8.15-6.7,1.3-1.03,2.51-2.2,4.06-2.87,1.02-1.16,2.03-2.33,3.14-3.41,2.8-1.19,5.21-3.9,7.63-5.94,2.15-1.81,1.18-5.52-1.34-6.38ZM57.18,106.68c-1.5-.24-2.77,1.63-3.43-.85,.18,.68-.56-.2,0,0-.6-.21-.78-.87-.86-1.42,.51-.11,4.22,1.5,4.28,2.28Zm-22.07,1.55c-.06-.09-.12-.22-.19-.41,1.12,.19,1.18-1.16,1.42,.57,.13,.91,.78,1.63,.86,2.56-.88-.75-1.6-1.67-2.09-2.72Zm8.09-2.21c-1.33,.82-.31,3.25-.01,4.36-1.3-.06-1.21-1.62-2.28-1.99-.7,.63,.78,1.73,.57,2.56-2.27,.26-1.79-3.47-3.99-3.7,.56-.97,4.65-2.63,5.71-2.56-.71-.04,.07-.31,0,0,.22-.16,.42-.34,.57-.57,1.08,.57,.45,2.46,1.71,2.85,.08,1.21,1.63,1.35,1.71,2.56-2.24,.55-2.72-4.29-3.98-3.51Zm5.7,1.52c-1.85-.49-2.02-2.69-3.42-3.7,1.26,.9,.3-.54,.05-.17,.25-.66,1.45-.22,1.66-.97,1.44,1.03,.96,3.41,1.71,4.84Zm29.68-31.02c-.44,1.26-1.05,2.46-1.79,3.58-1.41,2.13-3.24,3.91-5.1,5.65-3.64,3.41-8.96,5.04-13.47,7.02-5.33,2.34-10.95,4.03-16.38,6.13-2.53,.97-5.05,2.21-7.64,2.99-.93,.28-1.6,.65-2.54,.93-.41,.08-.66,.33-.74,.75-.57-.09-1.12-.02-1.64,.21-.96,.38-5.13-.56-4.03-2.06,.98-1.33,4.17-2.67,5.67-3.28,2.24-1.61,4.86-2.83,7.23-4.26,2.51-1.52,4.94-3.17,7.51-4.59,9.36-5.17,19.53-9.73,29.9-12.72-.17,.02,.28-.12,2.16-.62,.1,.01,1.43,.29,.86,.29Zm50.43-34.44c-.38,.49-1.51,1.26-2.08,1.56-1.33,.7-2.7,2.07-3.65,3.38-.91,1.25-2.34,1.97-3.46,3.1-1.46,1.47-3.08,1.84-4.83,2.96-1.51,.97-2.7,2.09-4.09,3.23-2.89,2.38-5.37,4.9-9.22,5.42,4.46-4.56,9.61-8.46,14.78-12.16,2.24-1.6,4.33-3.28,6.3-5.24,1.75-1.73,4.36-2.68,5.75-4.8,1.12-.15,.87,2.05,.49,2.55Zm-64.99,60.05c.07-1.31-1.12-3.7-2.28-3.7,.14,0-.05,.46-.18,.68-.18,1.46,.95,2.77,2.46,3.02Zm-29.1,5.69c.05,.14,.13,.27,.19,.41,.34,.57,.4-.31-.19-.41Zm26.65-8.71c.03-.23,.08-.46,.18-.68-.38,.91-.31,.91-.18,.68Zm-22.08-.4c.75,.09,.94-.39,.86-1.13-.75-.09-.74,.59-.86,1.13Zm11.94-7.7c.22,.06,.43,.15,.61,.3-.36-.28-.54-.34-.61-.3Zm8.93-3.59c.1-.26,.24,.23-.04,.19,.78,.11,.33,1.75,1.97,1.39,1.03-.22,1.79-.7,1.9-1.74,.34-3.11-3.34-2.27-3.83,.16Zm-8.93,3.59c-1.86-.53-4.59,1.69-3.08,2.57,1.67,.98,3.86,.14,3.73-1.96,.01,.83-.89-.47-.65-.61Zm3.76,1.72c1.55,.19,2.15-1,1.71-1.99-1.6-.42-2.51,.92-1.71,1.99Z"/></g></g></g></svg>