<?xml version="1.0" encoding="UTF-8"?><svg id="Capa_2" xmlns="http://www.w3.org/2000/svg" viewBox="0 0 152.73 189.37"><defs><style>.cls-1{fill:#fff;}.cls-2{fill:none;stroke:#fff;stroke-miterlimit:10;stroke-width:4px;}.cls-3{fill:#d5d0c5;fill-rule:evenodd;}</style></defs><g id="Capa_1-2"><g id="Icon_Bebidas"><circle class="cls-2" cx="76.36" cy="76.36" r="74.36"/><g><path class="cls-1" d="M39.87,189.19c-.22,0-.41-.07-.56-.2s-.22-.28-.22-.46v-17.71c0-.21,.08-.37,.25-.48,.16-.11,.34-.17,.53-.17h4.26c.97,0,1.86,.11,2.67,.34,.81,.23,1.45,.65,1.92,1.29,.48,.63,.71,1.56,.71,2.79,0,1.09-.2,2.01-.61,2.74s-.94,1.25-1.6,1.55c.54,.21,1,.49,1.4,.86,.4,.36,.71,.83,.94,1.4s.34,1.31,.34,2.21v.47c0,1.32-.23,2.37-.68,3.15-.45,.78-1.07,1.34-1.85,1.69-.78,.35-1.65,.52-2.6,.52h-4.91Zm.94-11.05h3.38c1.21,0,2.11-.25,2.68-.75,.57-.5,.86-1.37,.86-2.6,0-.81-.16-1.44-.47-1.87-.31-.43-.74-.73-1.27-.9s-1.17-.25-1.9-.25h-3.28v6.37Zm0,9.46h3.74c1.14,0,2.04-.31,2.68-.92,.64-.62,.96-1.59,.96-2.92v-.44c0-1.35-.32-2.3-.96-2.86-.64-.55-1.53-.83-2.68-.83h-3.74v7.98Z"/><path class="cls-1" d="M57.87,189.37c-1.09,0-2.06-.21-2.9-.62s-1.5-.99-1.98-1.73c-.48-.74-.71-1.6-.71-2.59v-2.91c0-.87,.22-1.66,.68-2.39,.45-.73,1.05-1.31,1.81-1.74,.75-.43,1.58-.65,2.48-.65s1.67,.2,2.41,.61c.74,.41,1.33,.97,1.78,1.68,.45,.71,.68,1.53,.68,2.44,0,.68-.11,1.16-.34,1.44-.23,.29-.51,.46-.85,.53s-.7,.1-1.08,.1h-5.88v.96c0,1.04,.37,1.86,1.12,2.47s1.69,.91,2.83,.91c.69,0,1.23-.09,1.61-.26,.38-.17,.68-.35,.9-.52,.22-.17,.42-.26,.61-.26,.14,0,.26,.05,.38,.14,.11,.1,.2,.2,.26,.33s.09,.23,.09,.34c0,.19-.16,.42-.47,.7-.31,.28-.76,.52-1.35,.71-.59,.2-1.28,.3-2.08,.3Zm-3.9-7.07h5.2c.52,0,.87-.06,1.04-.17,.17-.11,.26-.35,.26-.72,0-.55-.13-1.08-.4-1.59-.27-.5-.65-.91-1.14-1.22-.49-.31-1.06-.47-1.7-.47-.59,0-1.13,.14-1.62,.43-.49,.29-.89,.67-1.18,1.14s-.44,1.01-.44,1.6v.99Z"/><path class="cls-1" d="M69.85,189.37c-.81,0-1.54-.2-2.18-.6-.64-.4-1.1-.87-1.38-1.4v1.14c0,.17-.08,.33-.23,.47-.16,.14-.35,.21-.57,.21s-.42-.07-.59-.21c-.16-.14-.25-.29-.25-.47v-18.54c0-.19,.08-.34,.25-.46,.17-.11,.36-.17,.59-.17,.24,0,.45,.06,.61,.17,.17,.11,.25,.26,.25,.46v8.74c.29-.5,.73-.96,1.31-1.37,.58-.41,1.29-.61,2.14-.61s1.62,.22,2.33,.66,1.26,1.03,1.69,1.75c.42,.73,.64,1.54,.64,2.44v2.83c0,.85-.21,1.66-.64,2.42-.43,.76-.98,1.37-1.68,1.83s-1.46,.69-2.29,.69Zm-.31-1.56c.59,0,1.13-.16,1.61-.48,.48-.32,.88-.74,1.17-1.26,.29-.52,.44-1.07,.44-1.64v-2.83c0-.55-.15-1.08-.44-1.59-.29-.5-.69-.91-1.17-1.24-.49-.32-1.03-.48-1.64-.48-.52,0-1.02,.13-1.51,.4-.49,.27-.88,.65-1.2,1.13-.31,.49-.47,1.08-.47,1.77v3.64c0,.26,.14,.59,.43,1,.29,.41,.67,.77,1.16,1.09,.49,.32,1.02,.48,1.61,.48Z"/><path class="cls-1" d="M78.07,173.25c-.31,0-.58-.11-.81-.32s-.34-.47-.34-.77,.11-.55,.34-.75,.49-.31,.81-.31,.58,.1,.81,.31c.22,.21,.34,.46,.34,.75s-.11,.55-.34,.77c-.23,.22-.49,.32-.81,.32Zm-.03,15.94c-.23,0-.42-.07-.58-.21-.17-.14-.25-.29-.25-.47v-11c0-.19,.08-.34,.25-.46,.16-.11,.36-.17,.58-.17,.24,0,.45,.06,.61,.17,.16,.11,.25,.26,.25,.46v11c0,.17-.08,.33-.25,.47-.17,.14-.37,.21-.61,.21Z"/><path class="cls-1" d="M86.28,189.37c-.82,0-1.58-.23-2.29-.69-.71-.46-1.27-1.07-1.69-1.83s-.62-1.57-.62-2.42v-2.83c0-.9,.21-1.72,.62-2.44,.42-.73,.98-1.31,1.69-1.75,.71-.44,1.49-.66,2.34-.66s1.56,.2,2.15,.61c.58,.41,1.01,.86,1.29,1.37v-8.74c0-.19,.09-.34,.26-.46,.17-.11,.37-.17,.6-.17,.26,0,.46,.06,.61,.17,.15,.11,.22,.26,.22,.46v18.54c0,.17-.07,.33-.22,.47-.15,.14-.35,.21-.61,.21-.21,0-.39-.07-.55-.21s-.23-.29-.23-.47v-1.14c-.28,.54-.74,1.01-1.39,1.4-.65,.4-1.37,.6-2.17,.6Zm.29-1.56c.62,0,1.17-.16,1.65-.48,.48-.32,.85-.68,1.13-1.09s.42-.74,.42-1v-3.64c0-.69-.16-1.28-.47-1.77-.31-.48-.71-.86-1.2-1.13-.49-.27-.99-.4-1.51-.4-.59,0-1.13,.16-1.61,.48-.49,.32-.88,.73-1.17,1.24s-.44,1.03-.44,1.59v2.83c0,.57,.15,1.12,.44,1.64,.29,.52,.68,.94,1.17,1.26,.48,.32,1.01,.48,1.59,.48Z"/><path class="cls-1" d="M97.44,189.37c-.97,0-1.8-.28-2.5-.84-.69-.56-1.04-1.43-1.04-2.59,0-.95,.25-1.69,.77-2.2s1.22-.87,2.13-1.07,1.96-.3,3.16-.3h1.33v-.62c0-.55-.1-1.11-.3-1.65-.2-.55-.52-1-.96-1.35-.44-.35-1.04-.53-1.81-.53-.57,0-1.04,.06-1.4,.18-.36,.12-.65,.25-.86,.38s-.38,.2-.52,.2c-.21,0-.37-.1-.49-.31-.12-.21-.18-.41-.18-.6,0-.23,.18-.44,.53-.64s.81-.36,1.35-.49c.55-.13,1.09-.2,1.62-.2,1.16,0,2.08,.24,2.77,.71,.68,.48,1.18,1.1,1.48,1.86,.3,.76,.46,1.58,.46,2.44v6.76c0,.19-.07,.35-.22,.48s-.35,.2-.61,.2c-.21,0-.39-.07-.55-.2-.16-.13-.23-.29-.23-.48v-1.14c-.45,.5-1,.96-1.64,1.38-.64,.42-1.4,.62-2.29,.62Zm.42-1.43c.57,0,1.12-.15,1.64-.44,.52-.29,.95-.65,1.29-1.08s.51-.83,.51-1.21v-1.66h-1.09c-.78,0-1.52,.05-2.22,.14-.7,.1-1.27,.3-1.72,.61-.44,.31-.66,.81-.66,1.48,0,.75,.22,1.29,.66,1.64s.97,.52,1.6,.52Z"/><path class="cls-1" d="M109.45,189.37c-.81,0-1.53-.1-2.13-.31s-1.08-.46-1.43-.74-.52-.56-.52-.82c0-.12,.03-.24,.08-.35,.05-.11,.13-.21,.22-.3,.09-.09,.19-.13,.3-.13,.19,0,.4,.1,.64,.3s.56,.4,.99,.61,1.03,.31,1.81,.31c.99,0,1.68-.19,2.08-.56s.6-.8,.6-1.29c0-.57-.15-1.02-.45-1.34-.3-.32-.7-.57-1.2-.75-.49-.18-1.01-.35-1.56-.49s-1.07-.34-1.56-.57-.89-.56-1.2-.97-.46-.98-.46-1.69c0-.55,.14-1.11,.42-1.65s.71-1,1.31-1.35c.6-.36,1.39-.53,2.38-.53,.57,0,1.13,.06,1.66,.18,.54,.12,.97,.28,1.31,.48s.51,.4,.51,.61c0,.09-.03,.2-.09,.34s-.14,.26-.25,.38c-.1,.11-.22,.17-.36,.17s-.33-.07-.56-.2c-.23-.13-.53-.25-.9-.36-.36-.11-.8-.17-1.3-.17-.62,0-1.13,.11-1.51,.34-.38,.22-.66,.49-.83,.79-.17,.3-.26,.6-.26,.9,0,.5,.16,.88,.47,1.14,.31,.26,.72,.47,1.21,.64,.49,.17,1.01,.32,1.56,.47s1.07,.35,1.56,.61c.49,.26,.89,.62,1.2,1.09,.3,.47,.46,1.09,.46,1.87,0,1.02-.36,1.84-1.09,2.44-.73,.61-1.76,.91-3.09,.91Z"/></g><g id="cocktail2"><path class="cls-3" d="M71.92,51.06c-.45,0-.89,0-1.34-.01,1.64,.05,1.72,.03,1.34,.01Zm11.66,1.05c1.35,.02-.22-.75,0,0h0Zm23.35-19.32c-.81,.52,.8,.17,0,0h0Zm2.82,1.16c-.36-.98-1.65-3.69-2.82-3.54-1.92,0-4.44,1.44-6.25,2.09-2.33,.84-4.66,1.68-7.02,2.41-1.02,0-2.4-.25-3.35,.19-.86,.4-.77,.48-1.58,.31-2.33-.48-1.98,1.96-1.98,3.47-1.67-.2-2.58,.36-2.67,2.01-.05,.86-.87,1.68-1.57,2.49-.03,1.13-.39,2.6-.75,3.66-.37,1.04-3.14,.54-4.17,.6-3.02,.17-6.01,.31-9.04,.38-2.05,.05-5.05-.06-6.3,1.72-.68,.97-2.17-.2-2.92,1.3-.57,1.13-.44,2.56-.51,3.79-.16,2.77,.08,5.44,.04,8.17-.09,6.12,.75,12.25,.82,18.34,.09,6.92,.79,13.81,1.19,20.72,.2,3.56,.32,7.13,.26,10.7-.04,2.06-.51,3.34,1.22,4.72,.55,.44,1.65,1.3,2.35,1.47,1.64,.4,2.93,1.71,4.61,2.06,2.33,.48,4.64,1.11,7.13,1.38,3.65,.39,10.79-1.93,11.91-5.97,3.52,2.17,2.64-4.97,2.64-7.06,0-3.33,.4-6.64,.3-9.99-.23-7.29-.62-14.46-.55-21.75,.04-3.94,.1-7.88-.06-11.81-.08-2.01-.22-4.02-.47-6.01,0-1.52,.36-3.54-.02-5.01-.26-.99-.53-.66-.17-1.67,.29-.81,.22-1.75,.19-2.59-.91-1.08-1.74-1.36-2.86-2.08-.89-.58-1.81-.25-2.74-.58-.67-.24,.38-2.92,.56-3.42,1.11,.25,1.67,1.64,2.32,.59,.94-1.51-.45-2.15-.47-3.76,.58,.35,1.49,.86,2.12,.26,.24,.29,.53,.54,.85,.73,1.16,.47,3.41-.97,4.47-1.41,2.8-1.16,5.69-2.12,8.53-3.16,1.61-.59,3.27-1.06,4.91-1.59,1.32-.42,2.45-.49,1.83-2.15Zm-39.17,17.1c-.36-.06,.86-.02,1.34,.01,3.09-.04,6.18-.44,9.27-.28,.11,.71-.43,1.13-.27,1.85-5.08-.35-10.42,.3-15.39-1.06,.62-.53,4.21-.67,5.04-.53Zm-6.37,23.94v-19.18c1.47,1.37,2.57,3.07,3.68,4.72,1.19,1.78,2.19,.22,2.95-1.02,.82-.55,1.36-3.78-.12-2.98-.95,.51-1.04,1.73-1.74,2.45-.78-1.11-1.6-2.2-2.5-3.22-.65-.75-2.13-.65-2.54-1.28-.22-1.01,4.68,.58,5.31,.79-1.45-.49,4.01-.21,0,0,3.72-.19,7.43,.37,11.15,.26,.06,7.18-2.88,13.95-2.39,21.17-2.87,0-5.66,.05-8.51,.3-1.37,.12-2.71,.19-4.08,.33-1.73,.17-1.21-.98-1.21-2.35Zm16.45,43.27c0-.26,.33-.21,.53-.27,0,.26-.32,.21-.53,.27Zm7.17-6.88c0,1.15,0,2.3,0,3.44-.55-.05-1.08,.01-1.61,.18-1.27,.42-2.02,1.58-3.17,2.2-1.02-.7-1.33-2.05-1.59-3.18,.22,.95-.49-.04-.44-.23-.53-.07-.62,.93-.75,1.42-.21,.85-2.06,0-2.8,.13,.21-3.88-2.17-.23-3.18,0,.06-.88,.22-2.44-.79-2.91-1.05,.27-1.23,1.48-1.33,2.38-.8-.36-2.39,.34-2.2-.87,.16-.97,.7-.33,1-.99,.54-1.22,.55-3.5-1.45-2.91,.02-.42,.13-1.28-.53-1.32,.91-1.81,.27-3.74-1.15-1.36-.6,1-1.59,3.25-2.83,3.47,.51-8.91-.54-17.81-.27-26.72,.49,.21,3.04,1.08,3.05,1.38,.02,.54-.59,2.62,.69,1.88,1.15-.66,.94-1.41,2.49-1.41,.81,0,2.53,.33,3.25-.07,3.72-2.09,9.74-1.11,12.81-4.43,.68,.51,.29,3.23,.33,3.99,.13,2.2,.23,4.39,.29,6.59,.13,4.14,.17,8.29,.18,12.44,0,2.29,0,4.59,0,6.88Zm-.27-56.36c-.27,4.29-.15,8.6-.05,12.9,.05,2.23,.11,4.46,.11,6.69,0,1.09,.67,4.98-.94,4.5-1.53-.46-2.8,1.97-4.52,1.73-1.97-.28-3.78,.06-5.74,.11-2.09,.05-7.61-.86-8.76,1.06-.49-.29-3.27-.97-2.41-1.79,.59-.57,1.79-.34,2.51-.32,2.18,.06,4.4-.54,6.6-.54,2.56,0,5.1-.02,7.63-.19,1.12-.08,3.49,.38,4.11-.9,.94-1.95-2.61-1.87-3.55-1.83-1.39,.06-2.2,.57-2.13-1.1,.05-1.39,.18-2.78,.37-4.16,.73-5.32,2.21-10.5,2.25-15.9,1.53,.17,2.99-.4,4.51-.26Zm-.53-3.44c-.9,.72-2.39,.54-3.45,.53-.18-.61,.36-.75,.27-1.32,1.01,.34,2.28,.16,3.19,.8Zm17.19-16.2c-1.64,.62-3.7,1.55-5.51,1.65-1.63,1.11-4.08,1.55-5.88,2.52-1.92,1.03-3.55,1.46-3.68-1.19,.74,.16,1.12-.1,1.52-.67,.47-.65,1.2-.39,1.93-.39,1.6,0,3.1-.43,4.6-.97,3.03-1.09,7.03-1.8,9.73-3.53,.74,.16,1.53,.43,1.59,1.32-1.33-.28-3.12,.82-4.31,1.26Zm-21.17,19.9c-.06,7.88,1.79,.2,0,0h0Zm23.88-24.87c1.52-.2-.09,0,0,0h0Zm-25.91,83.39c.12,.02,.26,.07,.44,.23-.3-.26-.42-.29-.44-.23Zm-8.64-67.37c-.07,.04-.13,.09-.21,.12,.15-.06,.2-.1,.21-.12Zm-.21,.12c-.17,0-.33-.03-.47-.08-.17,.05-.15,.1,.47,.08Zm-15.46,14.28c-.98-.34-1.68-.69-2.6-1.17-2.44-1.28-5.33-2.64-6.97-4.96-3.67-5.22-1.71-13.36,2.66-17.47,3.82-3.6,10.6-4.29,15.5-2.82,2.42,.73,4.42,3.12,4.87,5.56,.25,1.39-.2,5.88,1.54,6.5,.21-.06,.69-.12,.68-.04,1.95-1.21,.7-6.82,.13-8.37-1.13-3.02-3.4-5.08-6.4-6.18-6.04-2.22-14.53-.42-18.93,4.26-4.82,5.12-5.46,12.55-2.89,18.83,.94,2.3,2.99,3.89,5.06,5.09,1.84,1.06,4.35,3,6.6,2.87,1.24-.07,2.37-1.53,.76-2.08Zm.34-24.34c.13,0,.02,.64-.06,.95,.06,2.12,1.46,4.19,3.51,4.87,.54-2.04-1.13-5.82-3.45-5.82Zm-.06,.95c0-.32,0-.64,.06-.95-.22,1.28-.15,1.27-.06,.95Zm8.94,2.17c-.42,.5-.89,.95-1.29,1.46-.6,.75-1.49,4.32,.4,2.81,.56-.44,3.74-5.51,2.7-5.79,.06,.07-.22,.28-.07-.02-.24,.48-1.28,1.01-1.73,1.54Zm-15.78,5.87c.91,1.13,4.95,1.58,6.75,.76-.46-.07-.29-1.38,.68-.5-1.5-1.37-6.13-2.36-7.43-.27Zm7.43,.27c-.15,.2-.39,.36-.68,.5,.16,.02,.39-.1,.68-.5Zm-.91,7.05c-1.88-.4-5.17-.25-5.19,2.21,1.23,.2,4.92-.54,5.51-1.94-.38,.65-1.74-.55-.32-.27Zm13.91,37.67c.84,.22-.48,.66-.12,.14-1.23,1.47-.21,3.67,1.7,3.47,1-.1,.83-1.16,.81-1.9-.04-1.17-1.33-1.44-2.39-1.72Zm7.43,1.59h-.8c.27,0-.09,.88,0,0-.09,.89-.72,1.41-.53,2.38,1.35-.23,2.7,.29,2.65-1.59-.63-.76-1.61,1.07-1.33-.79Zm3.71,10.85c.91,.58,2.65,.11,2.39-1.32-1.07-.75-2.2,.34-2.39,1.32Zm-5.57-.79c.08,.07,.15,.16,.22,.24-.05-.06-.11-.14-.22-.24Zm-.62,.03c-1.79,.32-2.08,2.86-.7,3.94,1.66-.14,2.5-2.34,1.6-3.65,.17,.39-1.14-.13-.9-.29Zm0,0c.19-.03,.39-.05,.62-.03-.37-.03-.55-.02-.62,.03Zm6.23,11.88c-.1,0-.2,0-.3,0,.15,.02,.24,.01,.3,0Zm0,0c.88-.04,1.65-.67,1.25-1.7-.4-1.03-1.36-.15-1.53-.65-.72-2.08-.52-.96-2.41-.82,.49,1.74,1.89,1.6,2.39,3.18-.13-.4,.66-.05,.3,0Z"/></g></g></g></svg>